HIERARCHY
ROOT Hips
{
	OFFSET 0.00000 0.00000 0.00000
	CHANNELS 6 Xposition Yposition Zposition Zrotation Yrotation Xrotation 
	JOINT LHipJoint
	{
		OFFSET 0 0 0
		CHANNELS 3 Zrotation Yrotation Xrotation
		JOINT LeftHip
		{
			OFFSET 1.58161 -1.81893 0.78828
			CHANNELS 3 Zrotation Yrotation Xrotation
			JOINT LeftKnee
			{
				OFFSET 2.53374 -6.96141 0.00000
				CHANNELS 3 Zrotation Yrotation Xrotation
				JOINT LeftAnkle
				{
					OFFSET 2.63509 -7.23986 0.00000
					CHANNELS 3 Zrotation Yrotation Xrotation
					JOINT LeftToe
					{
						OFFSET 0.14115 -0.38781 2.05350
						CHANNELS 3 Zrotation Yrotation Xrotation
						End Site
						{
							OFFSET 0.00000 -0.00000 1.05543
						}
					}
				}
			}
		}
	}
	JOINT RHipJoint
	{
		OFFSET 0 0 0
		CHANNELS 3 Zrotation Yrotation Xrotation
		JOINT RightHip
		{
			OFFSET -1.11138 -1.81893 0.78828
			CHANNELS 3 Zrotation Yrotation Xrotation
			JOINT RightKnee
			{
				OFFSET -2.58392 -7.09926 0.00000
				CHANNELS 3 Zrotation Yrotation Xrotation
				JOINT RightAnkle
				{
					OFFSET -2.66423 -7.31992 0.00000
					CHANNELS 3 Zrotation Yrotation Xrotation
					JOINT RightToe
					{
						OFFSET -0.18831 -0.51739 2.12114
						CHANNELS 3 Zrotation Yrotation Xrotation
						End Site
						{
							OFFSET -0.00000 -0.00000 1.09845
						}
					}
				}
			}
		}
	}
	JOINT lowerback
	{
		OFFSET 0 0 0
		CHANNELS 3 Zrotation Yrotation Xrotation
		JOINT Chest
		{
			OFFSET -0.01511 1.97958 -0.08829
			CHANNELS 3 Zrotation Yrotation Xrotation
			JOINT Chest2
			{
				OFFSET 0.08344 1.97334 -0.04330
				CHANNELS 3 Zrotation Yrotation Xrotation
				JOINT lowerneck
				{
					OFFSET 0 0 0
					CHANNELS 3 Zrotation Yrotation Xrotation
					JOINT Neck
					{
						OFFSET 0.00559 1.76246 0.31246
						CHANNELS 3 Zrotation Yrotation Xrotation
						JOINT Head
						{
							OFFSET -0.07011 1.80354 -0.30524
							CHANNELS 3 Zrotation Yrotation Xrotation
							End Site
							{
								OFFSET -0.02385 1.83547 -0.13906
							}
						}
					}
				}
				JOINT LeftCollar
				{
					OFFSET 0 0 0
					CHANNELS 3 Zrotation Yrotation Xrotation
					JOINT LeftShoulder
					{
						OFFSET 3.20667 1.30156 -0.60240
CHANNELS 3 Zrotation Xrotation Yrotation
						JOINT LeftElbow
						{
OFFSET 0 -4.956630 0.000000
CHANNELS 3 Zrotation Xrotation Yrotation
							JOINT LeftWrist
							{
OFFSET 0 -3.381770 0.000000
CHANNELS 3 Zrotation Xrotation Yrotation
								JOINT lhand
								{
									OFFSET 0 0 0
CHANNELS 3 Zrotation Xrotation Yrotation
									JOINT LFingers
									{
OFFSET 0 -0.662910 0.000000
CHANNELS 3 Zrotation Xrotation Yrotation
										End Site
										{
OFFSET 0 -0.534450 0.000000
										}
									}
								}
								JOINT LThumb
								{
OFFSET 0 0.000000 0.000000
CHANNELS 3 Zrotation Xrotation Yrotation
									End Site
									{
OFFSET 0 -0.542610 0.542610
									}
								}
							}
						}
					}
				}
				JOINT RightCollar
				{
					OFFSET 0 0 0
					CHANNELS 3 Zrotation Yrotation Xrotation
					JOINT RightShoulder
					{
						OFFSET -3.06877 1.34672 -0.60964
CHANNELS 3 Zrotation Xrotation Yrotation
						JOINT RightElbow
						{
OFFSET 0 -5.083650 0.000000
CHANNELS 3 Zrotation Xrotation Yrotation
							JOINT RightWrist
							{
OFFSET 0 -3.359840 0.000000
CHANNELS 3 Zrotation Xrotation Yrotation
								JOINT rhand
								{
									OFFSET 0 0 0
CHANNELS 3 Zrotation Xrotation Yrotation
									JOINT RFingers
									{
OFFSET 0 -0.820760 0.000000
CHANNELS 3 Zrotation Xrotation Yrotation
										End Site
										{
OFFSET 0 -0.661720 0.000000
										}
									}
								}
								JOINT RThumb
								{
OFFSET 0 0.000000 0.000000
CHANNELS 3 Zrotation Xrotation Yrotation
									End Site
									{
OFFSET 0 -0.671820 0.671820
									}
								}
							}
						}
					}
				}
			}
		}
	}
}
MOTION
Frames: 12
Frame Time: 0.008333333333333333
-6.225000 17.842500 0.403400 -114.548000 85.415600 -98.337300 0.000000 0.000000 0.000000 -4.169700 -3.648200 -27.580500 1.914600 8.685900 24.817700 0.312600 -4.194800 -9.953700 1.383100 -7.441400 -21.029900 0.000000 0.000000 0.000000 11.556900 7.761400 -27.984500 -2.259600 -9.387000 27.013500 -0.136600 -6.870400 -12.562800 -0.085500 1.886500 -5.192100 -1.474200 1.350600 0.627000 4.456500 1.820600 3.443600 5.485000 0.848000 3.010000 1.562200 -1.558200 -16.950200 -3.368900 0.553500 41.095700 -1.562900 0.589300 18.264300 -0.000000 -0.000000 0.000000 -16.790700 -23.274500 -77.143800 11.519400 -19.080000 1.942300 27.620000 -18.011200 -67.509800 0.000000 0.000000 0.000000 -7.125000 0.000000 0.000000 168.737300 10.137300 -9.290600 -0.000000 -0.000000 0.000000 12.657900 -25.762100 40.537900 -9.500300 -15.954200 -1.334300 -17.373100 -28.969700 9.317800 0.000000 0.000000 0.000000 7.125000 0.000000 -0.000000 8.348800 39.601400 1.119900
-6.225667 17.842864 0.402127 -114.597693 85.406207 -98.391417 0.000000 0.000000 0.000000 -4.164913 -3.637655 -27.607710 1.918781 8.694869 24.845334 0.312479 -4.258128 -9.955154 1.359466 -7.379951 -20.846097 0.000000 0.000000 0.000000 11.562475 7.766006 -27.949473 -2.252570 -9.373425 26.970594 -0.135873 -6.887247 -12.568860 -0.087379 1.906620 -5.247611 -1.458201 1.349085 0.642453 4.457227 1.818661 3.439479 5.475970 0.847818 2.997577 1.554504 -1.554746 -16.943049 -3.350962 0.547622 41.059703 -1.553689 0.586694 18.240544 0.000000 0.000000 0.000000 -16.854816 -23.244987 -77.161011 11.493342 -19.040428 1.933816 27.903552 -17.401251 -67.595490 0.000000 0.000000 0.000000 -7.125000 0.000000 0.000000 168.773539 10.259290 -9.231211 0.000000 0.000000 0.000000 12.609722 -25.701014 40.693766 -9.547145 -16.028133 -1.347208 -17.442306 -29.093690 9.289984 0.000000 0.000000 0.000000 7.125000 0.000000 0.000000 8.284563 39.578190 1.115900
-6.226312 17.843079 0.400791 -114.553037 85.394397 -98.353538 0.000000 0.000000 0.000000 -4.161927 -3.609471 -27.631209 1.922072 8.701909 24.867053 0.311997 -4.307993 -9.950397 1.351118 -7.358297 -20.781322 0.000000 0.000000 0.000000 11.569598 7.790117 -27.908297 -2.245943 -9.360614 26.930042 -0.134594 -6.919275 -12.582532 -0.088854 1.922414 -5.291184 -1.434125 1.347740 0.655850 4.456534 1.816849 3.438941 5.461004 0.847806 2.990284 1.555013 -1.552415 -16.943086 -3.348120 0.543588 41.027522 -1.552852 0.584004 18.221156 0.000000 0.000000 0.000000 -16.931420 -23.206888 -77.089237 11.449834 -18.974353 1.919692 27.975105 -16.886986 -67.642210 0.000000 0.000000 0.000000 -7.125000 0.000000 0.000000 168.774562 10.313009 -9.217873 0.000000 0.000000 0.000000 12.563092 -25.645123 40.838437 -9.593332 -16.100985 -1.359989 -17.458762 -29.254634 9.250295 0.000000 0.000000 0.000000 7.125000 0.000000 0.000000 8.263705 39.538506 1.121251
-6.226918 17.843018 0.399337 -114.333055 85.378095 -98.144707 0.000000 0.000000 0.000000 -4.162291 -3.548506 -27.647814 1.923709 8.705363 24.877779 0.310846 -4.332839 -9.934095 1.371177 -7.410596 -20.937734 0.000000 0.000000 0.000000 11.579597 7.850476 -27.855695 -2.240065 -9.349221 26.893864 -0.132291 -6.979512 -12.610348 -0.089582 1.930171 -5.312576 -1.395037 1.346709 0.665425 4.453201 1.815273 3.445062 5.435007 0.848109 2.992527 1.570769 -1.552173 -16.956478 -3.373330 0.542982 41.002434 -1.567578 0.581155 18.209885 0.000000 0.000000 0.000000 -17.031230 -23.152832 -76.852105 11.373901 -18.859029 1.895088 27.652708 -16.550530 -67.616516 0.000000 0.000000 0.000000 -7.125000 0.000000 0.000000 168.710143 10.239864 -9.290109 0.000000 0.000000 0.000000 12.519338 -25.598884 40.962305 -9.638298 -16.171828 -1.372533 -17.377193 -29.484252 9.188543 0.000000 0.000000 0.000000 7.125000 0.000000 0.000000 8.323458 39.468209 1.143976
-6.227609 17.843254 0.397713 -114.144876 85.373242 -97.971071 0.000000 0.000000 0.000000 -4.167107 -3.518242 -27.649662 1.926575 8.711404 24.896605 0.311136 -4.347212 -9.939589 1.373002 -7.415360 -20.951922 0.000000 0.000000 0.000000 11.585059 7.866649 -27.816451 -2.233169 -9.335793 26.851409 -0.130710 -7.000738 -12.606488 -0.088019 1.913037 -5.265274 -1.367102 1.351531 0.679198 4.444143 1.821669 3.448851 5.409263 0.852228 2.989044 1.582412 -1.558037 -16.970465 -3.379585 0.529400 40.995197 -1.575435 0.576017 18.208663 0.000000 0.000000 0.000000 -17.088042 -23.115907 -76.675187 11.302759 -18.750744 1.872138 27.309533 -16.480879 -67.524543 0.000000 0.000000 0.000000 -7.125000 0.000000 0.000000 168.661711 10.103494 -9.363660 0.000000 0.000000 0.000000 12.499161 -25.570455 41.016419 -9.670924 -16.223207 -1.381643 -17.328911 -29.621894 9.183357 0.000000 0.000000 0.000000 7.125000 0.000000 0.000000 8.364086 39.459016 1.151478
-6.228363 17.843651 0.396007 -113.977558 85.372116 -97.819156 0.000000 0.000000 0.000000 -4.171895 -3.503058 -27.645995 1.930049 8.718735 24.919453 0.312009 -4.358613 -9.953994 1.364400 -7.392819 -20.884496 0.000000 0.000000 0.000000 11.589767 7.862891 -27.783632 -2.225797 -9.321410 26.805997 -0.129452 -7.004615 -12.588626 -0.084945 1.878874 -5.170976 -1.342975 1.359026 0.694655 4.433044 1.831697 3.451629 5.383515 0.858121 2.983154 1.591779 -1.566461 -16.985349 -3.376379 0.509875 40.995351 -1.579703 0.569827 18.211750 0.000000 0.000000 0.000000 -17.123788 -23.087650 -76.534181 11.236376 -18.649597 1.850769 26.987867 -16.510621 -67.410752 0.000000 0.000000 0.000000 -7.125000 0.000000 0.000000 168.624968 9.950660 -9.431113 0.000000 0.000000 0.000000 12.489026 -25.550472 41.039385 -9.698595 -16.266762 -1.389375 -17.297748 -29.719708 9.204036 0.000000 0.000000 0.000000 7.125000 0.000000 0.000000 8.394344 39.477911 1.151760
-6.229636 17.844681 0.394128 -113.948469 85.348239 -97.794067 0.000000 0.000000 0.000000 -4.139534 -3.524389 -27.657994 1.935079 8.729522 24.952783 0.312191 -4.399216 -9.959933 1.305920 -7.237923 -20.422595 0.000000 0.000000 0.000000 11.617341 7.840529 -27.764119 -2.217677 -9.305472 26.755516 -0.128482 -6.996858 -12.562931 -0.071734 1.723069 -4.740952 -1.300131 1.369631 0.707866 4.429892 1.845757 3.454235 5.355578 0.866605 2.978184 1.591355 -1.573733 -17.012559 -3.347714 0.483150 40.990321 -1.571704 0.562313 18.214780 0.000000 0.000000 0.000000 -17.109425 -23.084620 -76.586238 11.221771 -18.627357 1.846102 27.249360 -16.250885 -67.423903 0.000000 0.000000 0.000000 -7.125000 0.000000 0.000000 168.680781 10.002292 -9.370876 0.000000 0.000000 0.000000 12.477451 -25.545866 41.039082 -9.732774 -16.320455 -1.398950 -17.320897 -29.810609 9.255183 0.000000 0.000000 0.000000 7.125000 0.000000 0.000000 8.383133 39.532573 1.138852
-6.231005 17.845494 0.392250 -113.775591 85.302237 -97.620347 0.000000 0.000000 0.000000 -4.076261 -3.539282 -27.672995 1.940618 8.741301 24.989285 0.312131 -4.437446 -9.961709 1.254775 -7.100892 -20.014700 0.000000 0.000000 0.000000 11.667064 7.846659 -27.741555 -2.209823 -9.290066 26.706851 -0.127924 -7.000551 -12.557497 -0.057191 1.533519 -4.218190 -1.236274 1.382609 0.712944 4.436303 1.862866 3.459407 5.326140 0.877050 2.980526 1.596474 -1.578100 -17.043303 -3.335293 0.464147 40.975898 -1.570725 0.556033 18.213550 0.000000 0.000000 0.000000 -17.112153 -23.086407 -76.617912 11.204503 -18.601025 1.840589 27.459123 -15.989212 -67.440974 0.000000 0.000000 0.000000 -7.125000 0.000000 0.000000 168.723257 10.049785 -9.323153 0.000000 0.000000 0.000000 12.469023 -25.539493 41.072088 -9.772012 -16.382087 -1.409977 -17.373410 -29.920440 9.303547 0.000000 0.000000 0.000000 7.125000 0.000000 0.000000 8.346141 39.586702 1.122603
-6.232520 17.845978 0.390371 -113.386533 85.222971 -97.223168 0.000000 0.000000 0.000000 -3.966513 -3.544493 -27.692508 1.946920 8.754573 25.030554 0.311706 -4.472110 -9.957224 1.214657 -6.990719 -19.688000 0.000000 0.000000 0.000000 11.750087 7.895625 -27.714406 -2.202369 -9.275461 26.660916 -0.127985 -7.021459 -12.582526 -0.040647 1.293236 -3.556003 -1.140827 1.399153 0.705793 4.457089 1.884561 3.468436 5.294445 0.890443 2.993858 1.609927 -1.578100 -17.079361 -3.347292 0.456753 40.947355 -1.580300 0.551609 18.205914 0.000000 0.000000 0.000000 -17.140575 -23.095436 -76.618942 11.183232 -18.568543 1.833802 27.591112 -15.724628 -67.463942 0.000000 0.000000 0.000000 -7.125000 0.000000 0.000000 168.745679 10.091054 -9.294247 0.000000 0.000000 0.000000 12.465327 -25.530464 41.155172 -9.818857 -16.455657 -1.423188 -17.470069 -30.058732 9.347725 0.000000 0.000000 0.000000 7.125000 0.000000 0.000000 8.270390 39.640031 1.101332
-6.233763 17.845555 0.389037 -112.856252 85.116550 -96.678728 0.000000 0.000000 0.000000 -3.826658 -3.519145 -27.713566 1.952859 8.767163 25.069598 0.311691 -4.516310 -9.960595 1.184302 -6.906066 -19.437496 0.000000 0.000000 0.000000 11.868030 7.948132 -27.699926 -2.196277 -9.263445 26.623017 -0.128908 -7.026473 -12.604602 -0.034275 1.193812 -3.282154 -1.035255 1.415742 0.688833 4.497174 1.906166 3.470882 5.277464 0.904153 3.005737 1.609168 -1.576874 -17.103203 -3.371824 0.465026 40.927168 -1.590102 0.550182 18.200912 0.000000 0.000000 0.000000 -17.176535 -23.095475 -76.622424 11.171770 -18.551046 1.830147 27.603993 -15.610530 -67.454397 0.000000 0.000000 0.000000 -7.125000 0.000000 0.000000 168.751890 10.084326 -9.290451 0.000000 0.000000 0.000000 12.483472 -25.521252 41.176409 -9.839636 -16.488313 -1.429088 -17.528629 -30.068561 9.406661 0.000000 0.000000 0.000000 7.125000 0.000000 0.000000 8.229922 39.705620 1.082468
-6.234956 17.844810 0.387892 -112.331252 85.007247 -96.136448 0.000000 0.000000 0.000000 -3.686960 -3.483199 -27.739719 1.958413 8.778955 25.106149 0.311662 -4.563201 -9.964179 1.158668 -6.833966 -19.224373 0.000000 0.000000 0.000000 11.990299 7.996115 -27.693741 -2.190948 -9.252901 26.589725 -0.129880 -7.025653 -12.620895 -0.032189 1.156755 -3.180194 -0.932154 1.431043 0.668196 4.541035 1.926015 3.469934 5.265873 0.916949 3.016192 1.602613 -1.575562 -17.119606 -3.398319 0.477368 40.908086 -1.598892 0.549421 18.194820 0.000000 0.000000 0.000000 -17.210070 -23.091075 -76.637683 11.168132 -18.545497 1.828990 27.612064 -15.521319 -67.442244 0.000000 0.000000 0.000000 -7.125000 0.000000 0.000000 168.757901 10.074522 -9.287568 0.000000 0.000000 0.000000 12.509706 -25.513591 41.168143 -9.849040 -16.503110 -1.431785 -17.562520 -30.026968 9.474585 0.000000 0.000000 0.000000 7.125000 0.000000 0.000000 8.212256 39.778533 1.065178
-6.236532 17.843901 0.386801 -112.283377 84.954282 -96.061302 0.000000 0.000000 0.000000 -3.640176 -3.443869 -27.807471 1.961564 8.785561 25.126814 0.310268 -4.605561 -9.945817 1.146245 -6.798333 -19.119230 0.000000 0.000000 0.000000 12.045749 7.992237 -27.724405 -2.188402 -9.247871 26.573848 -0.128668 -7.020138 -12.593625 -0.038128 1.258140 -3.459444 -0.882279 1.434497 0.643956 4.560549 1.930196 3.458177 5.258540 0.920463 3.018132 1.586615 -1.577198 -17.105546 -3.404561 0.479065 40.873665 -1.597801 0.545604 18.170822 0.000000 0.000000 0.000000 -17.198677 -23.073683 -76.752461 11.205765 -18.602947 1.840989 27.938400 -15.200861 -67.505209 0.000000 0.000000 0.000000 -7.125000 0.000000 0.000000 168.811351 10.182634 -9.216665 0.000000 0.000000 0.000000 12.543036 -25.520560 41.079848 -9.834314 -16.480021 -1.427604 -17.488102 -29.908675 9.579304 0.000000 0.000000 0.000000 7.125000 0.000000 0.000000 8.294491 39.880706 1.054876
